<svg style="position: absolute; width: 0; height: 0; overflow: hidden;" version="1.1" xmlns="http://www.w3.org/2000/svg">
<defs>
<symbol id="icon-menu" viewBox="0 0 32 32">
<title>menu</title>
<path d="M0 0h32v6.4h-32v-6.4z"></path>
<path d="M0 12.8h32v6.4h-32v-6.4z"></path>
<path d="M0 25.6h32v6.4h-32v-6.4z"></path>
</symbol>
<symbol id="icon-chat" viewBox="0 0 32 32">
<title>chat</title>
<path fill="#b3c5d8" style="fill: var(--color1, #b3c5d8)" d="M16 32c-8.837 0-16-7.163-16-16s7.163-16 16-16c8.837 0 16 7.163 16 16-0.011 8.832-7.168 15.989-15.999 16zM16 0.212c-8.72 0-15.788 7.069-15.788 15.788s7.069 15.788 15.788 15.788c8.72 0 15.788-7.069 15.788-15.788-0.010-8.716-7.072-15.778-15.787-15.788z"></path>
<path fill="#a29c5d" style="fill: var(--color2, #a29c5d)" d="M16.398 16.617v-2.206h-0.424v-0.636h1.060v1.185l1.060-1.185h4.107c0.301-0.001 0.546-0.245 0.547-0.547v-3.781c-0.001-0.299-0.242-0.542-0.54-0.547h-8.009c-0.301 0.001-0.546 0.245-0.547 0.547v1.573h-0.636v-1.572c0.001-0.653 0.53-1.181 1.182-1.183h8.017c0.653 0.001 1.181 0.53 1.183 1.182v3.781c-0.001 0.653-0.531 1.183-1.185 1.183-0.002 0-0.004 0-0.007-0h-3.814z"></path>
<path fill="#fff" style="fill: var(--color3, #fff)" d="M17.469 19.033c-0.178-0.963-0.982-1.693-1.967-1.754-0.011 0.026-0.018 0.050-0.026 0.072l-0.915 2.218-0.593-1.441c-0.064-0.15-0.21-0.253-0.379-0.253s-0.316 0.103-0.378 0.25l-0.594 1.444-0.913-2.221c-0.008-0.020-0.014-0.043-0.019-0.067-0.992 0.060-1.796 0.789-1.971 1.739l-0.786 4.398h9.325z"></path>
<path fill="#013e7e" style="fill: var(--color4, #013e7e)" d="M18.632 23.735h-10.085l0.848-4.758c0.197-1.11 1.121-1.952 2.254-2.023l0.289-0 0.064 0.292 0.617 1.498 0.299-0.731c0.111-0.267 0.37-0.451 0.671-0.451 0.001 0 0.002 0 0.003 0h-0c0 0 0 0 0.001 0 0.302 0 0.56 0.184 0.669 0.447l0.301 0.732 0.619-1.507 0.061-0.28h0.273c1.14 0.068 2.066 0.907 2.265 2l0.002 0.015zM9.308 23.099h8.564l-0.706-4.012c-0.135-0.743-0.709-1.322-1.438-1.463l-1.156 2.781-0.896-2.157c-0.012-0.034-0.044-0.057-0.082-0.057-0.001 0-0.002 0-0.003 0h0c-0.001-0-0.002-0-0.003-0-0.037 0-0.069 0.024-0.082 0.057l-0.888 2.158-1.144-2.783c-0.741 0.143-1.314 0.721-1.448 1.453z"></path>
<path fill="#fff" style="fill: var(--color3, #fff)" d="M13.59 10.808c-1.288 0-2.331 0.952-2.331 2.649s1.483 3.497 2.331 3.497 2.331-1.799 2.331-3.497-1.045-2.649-2.331-2.649z"></path>
<path fill="#013e7e" style="fill: var(--color4, #013e7e)" d="M13.59 17.272c-1.060 0-2.649-2.009-2.649-3.815 0-1.746 1.089-2.967 2.649-2.967s2.649 1.221 2.649 2.967c0 1.801-1.581 3.815-2.649 3.815zM13.59 11.126c-1.223 0-2.013 0.915-2.013 2.331 0 1.583 1.38 3.179 2.013 3.179s2.013-1.596 2.013-3.179c0-1.416-0.79-2.331-2.013-2.331z"></path>
</symbol>
<symbol id="icon-forms" viewBox="0 0 32 32">
<title>forms</title>
<path fill="#b3c5d8" style="fill: var(--color1, #b3c5d8)" d="M16 32c-8.837 0-16-7.163-16-16s7.163-16 16-16c8.837 0 16 7.163 16 16-0.011 8.832-7.168 15.989-15.999 16zM16 0.212c-8.72 0-15.788 7.069-15.788 15.788s7.069 15.788 15.788 15.788c8.72 0 15.788-7.069 15.788-15.788-0.010-8.716-7.072-15.778-15.787-15.788z"></path>
<path fill="#013e7e" style="fill: var(--color4, #013e7e)" d="M20.132 23.947h-9.536c-0.41 0-0.742-0.332-0.742-0.742v-13.139c0-0.41 0.332-0.742 0.742-0.742h0.954v0.636h-0.954c-0.059 0-0.106 0.047-0.106 0.106v13.139c0 0.059 0.047 0.106 0.106 0.106h9.536c0.059 0 0.106-0.047 0.106-0.106v-0.742h0.636v0.742c0 0.41-0.332 0.742-0.742 0.742z"></path>
<path fill="#013e7e" style="fill: var(--color4, #013e7e)" d="M21.404 22.887h-9.536c-0.41 0-0.742-0.332-0.742-0.742v-13.139c0-0.41 0.332-0.742 0.742-0.742h6.57c0.176 0 0.318 0.142 0.318 0.318v2.967c0 0.059 0.047 0.106 0.106 0.106h2.967c0.176 0 0.318 0.142 0.318 0.318v10.172c0 0.41-0.332 0.742-0.742 0.742zM11.868 8.901c-0.059 0-0.106 0.047-0.106 0.106v13.139c0 0.059 0.047 0.106 0.106 0.106h9.536c0.059 0 0.106-0.047 0.106-0.106v-9.854h-2.649c-0.41 0-0.742-0.332-0.742-0.742v-2.649z"></path>
<path fill="#013e7e" style="fill: var(--color4, #013e7e)" d="M21.828 12.291h-2.967c-0.41 0-0.742-0.332-0.742-0.742v-2.967c0-0.175 0.142-0.318 0.318-0.318 0.088 0 0.167 0.036 0.225 0.093l3.391 3.391c0.057 0.057 0.093 0.137 0.093 0.225 0 0.175-0.142 0.318-0.318 0.318zM18.755 9.35v2.2c0 0.059 0.047 0.106 0.106 0.106h2.2z"></path>
<path fill="#a29c5d" style="fill: var(--color2, #a29c5d)" d="M14.305 13.775h4.874v0.636h-4.874v-0.636z"></path>
<path fill="#a29c5d" style="fill: var(--color2, #a29c5d)" d="M14.305 15.258h4.874v0.636h-4.874v-0.636z"></path>
<path fill="#a29c5d" style="fill: var(--color2, #a29c5d)" d="M14.305 16.742h4.874v0.636h-4.874v-0.636z"></path>
<path fill="#a29c5d" style="fill: var(--color2, #a29c5d)" d="M14.305 18.225h4.874v0.636h-4.874v-0.636z"></path>
</symbol>
<symbol id="icon-sign" viewBox="0 0 32 32">
<title>sign</title>
<path fill="#b3c5d8" style="fill: var(--color1, #b3c5d8)" d="M16 32c-8.837 0-16-7.163-16-16s7.163-16 16-16c8.837 0 16 7.163 16 16-0.011 8.832-7.168 15.989-15.999 16zM16 0.212c-8.72 0-15.788 7.069-15.788 15.788s7.069 15.788 15.788 15.788c8.72 0 15.788-7.069 15.788-15.788-0.010-8.716-7.072-15.778-15.787-15.788z"></path>
<path fill="#013e7e" style="fill: var(--color4, #013e7e)" d="M18.238 23.311h-9.536c-0.41 0-0.742-0.332-0.742-0.742v-13.139c0-0.41 0.332-0.742 0.742-0.742h6.887v3.285c0 0.059 0.047 0.106 0.106 0.106h3.285v6.146h-0.636v-5.51h-2.649c-0.41 0-0.742-0.332-0.742-0.742v-2.649h-6.252c-0.059 0-0.106 0.047-0.106 0.106v13.139c0 0.059 0.047 0.106 0.106 0.106h9.536c0.059 0 0.106-0.047 0.106-0.106v-1.801h0.636v1.801c0 0.41-0.332 0.742-0.742 0.742z"></path>
<path fill="#013e7e" style="fill: var(--color4, #013e7e)" d="M18.662 12.715h-2.967c-0.41 0-0.742-0.332-0.742-0.742v-2.967c0-0.175 0.142-0.318 0.318-0.318 0.088 0 0.167 0.036 0.225 0.093l3.391 3.391c0.057 0.057 0.093 0.137 0.093 0.225 0 0.175-0.142 0.318-0.318 0.318zM15.589 9.774v2.2c0 0.059 0.047 0.106 0.106 0.106h2.198z"></path>
<path fill="#a29c5d" style="fill: var(--color2, #a29c5d)" d="M11.139 14.199h4.874v0.636h-4.874v-0.636z"></path>
<path fill="#a29c5d" style="fill: var(--color2, #a29c5d)" d="M11.139 15.682h4.874v0.636h-4.874v-0.636z"></path>
<path fill="#a29c5d" style="fill: var(--color2, #a29c5d)" d="M11.139 17.166h4.874v0.636h-4.874v-0.636z"></path>
<path fill="#a29c5d" style="fill: var(--color2, #a29c5d)" d="M11.139 18.649h4.874v0.636h-4.874v-0.636z"></path>
<path fill="#a29c5d" style="fill: var(--color2, #a29c5d)" d="M13.828 22.188l-0.153-0.617 9.664-2.416-0.155-0.617-9.664 2.416-0.155-0.617 10.28-2.571 0.462 1.852-10.28 2.568z"></path>
<path fill="#a29c5d" style="fill: var(--color2, #a29c5d)" d="M10.626 22.050l3.179-1.664 0.409 1.634zM13.381 21.323l-0.131 0.070h0.148z"></path>
<path fill="#a29c5d" style="fill: var(--color2, #a29c5d)" d="M22.182 19.772l-0.49-1.952-4.111 1.028-0.155-0.617 4.73-1.183 0.642 2.571-0.617 0.153z"></path>
</symbol>
<symbol id="icon-id" viewBox="0 0 32 32">
<title>id</title>
<path fill="#b3c5d8" style="fill: var(--color1, #b3c5d8)" d="M16 32c-8.837 0-16-7.163-16-16s7.163-16 16-16c8.837 0 16 7.163 16 16-0.011 8.832-7.168 15.989-15.999 16zM16 0.212c-8.72 0-15.788 7.069-15.788 15.788s7.069 15.788 15.788 15.788c8.72 0 15.788-7.069 15.788-15.788-0.010-8.716-7.072-15.778-15.787-15.788z"></path>
<path fill="#013e7e" style="fill: var(--color4, #013e7e)" d="M11.444 17.589c-0.818 0-1.483-0.807-1.483-1.801 0-0.803 0-1.801 1.483-1.801s1.483 0.998 1.483 1.801c0 0.994-0.665 1.801-1.483 1.801zM11.444 14.623c-0.848 0-0.848 0.318-0.848 1.166 0 0.636 0.388 1.166 0.848 1.166s0.848-0.534 0.848-1.166c0-0.848 0-1.166-0.848-1.166z"></path>
<path fill="#013e7e" style="fill: var(--color4, #013e7e)" d="M14.703 22.040h-6.508l0.019-0.337c0.1-1.723 1.021-3.213 2.295-3.709l0.235-0.091 0.39 0.566 0.309-0.456 0.316 0.46 0.39-0.566 0.235 0.091c1.272 0.496 2.195 1.986 2.295 3.709zM8.879 21.404h5.137c-0.159-1.225-0.782-2.261-1.634-2.713l-0.619 0.901-0.32-0.458-0.316 0.46-0.615-0.903c-0.852 0.451-1.475 1.488-1.634 2.713z"></path>
<path fill="#a29c5d" style="fill: var(--color2, #a29c5d)" d="M15.894 13.775h7.841v0.636h-7.841v-0.636z"></path>
<path fill="#a29c5d" style="fill: var(--color2, #a29c5d)" d="M15.894 15.682h7.841v0.636h-7.841v-0.636z"></path>
<path fill="#a29c5d" style="fill: var(--color2, #a29c5d)" d="M15.894 17.589h7.841v0.636h-7.841v-0.636z"></path>
<path fill="#a29c5d" style="fill: var(--color2, #a29c5d)" d="M15.894 19.285h3.603v0.636h-3.603v-0.636z"></path>
<path fill="#a29c5d" style="fill: var(--color2, #a29c5d)" d="M22.146 21.828c-0.761 0-1.377-0.617-1.377-1.377s0.617-1.377 1.377-1.377c0.761 0 1.377 0.617 1.377 1.377-0.001 0.76-0.617 1.376-1.377 1.377zM22.146 19.709c-0.41 0-0.742 0.332-0.742 0.742s0.332 0.742 0.742 0.742c0.41 0 0.742-0.332 0.742-0.742s-0.332-0.742-0.742-0.742z"></path>
<path fill="#013e7e" style="fill: var(--color4, #013e7e)" d="M18.111 10.327h-0.636c0-0.788-0.639-1.426-1.426-1.426s-1.426 0.639-1.426 1.426h-0.636c0-1.139 0.923-2.062 2.062-2.062s2.062 0.923 2.062 2.062z"></path>
<path fill="#013e7e" style="fill: var(--color4, #013e7e)" d="M19.921 12.927h-7.629v-2.755h7.629zM12.927 12.291h6.358v-1.483h-6.358z"></path>
<path fill="#013e7e" style="fill: var(--color4, #013e7e)" d="M23.559 23.735h-15.118c-0.916-0.001-1.658-0.743-1.659-1.659v-9.185c0.001-0.916 0.743-1.658 1.659-1.659h4.275v0.636h-4.274c-0.565 0.001-1.022 0.459-1.024 1.023v9.185c0.001 0.565 0.459 1.022 1.023 1.024h15.119c0.565-0.001 1.022-0.459 1.024-1.023v-9.185c-0.001-0.565-0.459-1.022-1.023-1.024h-3.851v-0.636h3.851c0.916 0.001 1.658 0.743 1.659 1.659v9.185c-0.001 0.916-0.743 1.658-1.659 1.659z"></path>
</symbol>
<symbol id="icon-open" viewBox="0 0 32 32">
<title>open</title>
<path fill="#b3c5d8" d="M16 32c-8.837 0-16-7.163-16-16s7.163-16 16-16c8.837 0 16 7.163 16 16-0.011 8.832-7.168 15.989-15.999 16zM16 0.212c-8.72 0-15.788 7.069-15.788 15.788s7.069 15.788 15.788 15.788c8.72 0 15.788-7.069 15.788-15.788-0.010-8.716-7.072-15.778-15.787-15.788z"></path>
<path fill="#013e7e" d="M14.885 15.513l0.45-0.45 8.777 8.777-0.45 0.45-8.777-8.777z"></path>
<path fill="#013e7e" d="M16.335 19.374l0.576-0.269-1.759-3.774 3.772 1.761 0.269-0.576-5.357-2.499 2.499 5.357z"></path>
<path fill="#a29c5d" d="M14.667 18.933c-0.001 0-0.002 0-0.004 0-2.458 0-4.45-1.992-4.45-4.45s1.992-4.45 4.45-4.45c2.458 0 4.45 1.992 4.45 4.45 0 0.243-0.020 0.482-0.057 0.714-0.021 0.13-0.154 0.247-0.314 0.247-0.178 0-0.322-0.144-0.322-0.322 0-0.017 0.001-0.034 0.004-0.051 0.028-0.174 0.044-0.376 0.044-0.583 0-0.001 0-0.002 0-0.003 0-2.107-1.708-3.814-3.815-3.814s-3.815 1.708-3.815 3.815c0 2.107 1.708 3.815 3.815 3.815h0.119l0.030 0.318 0.011 0.318z"></path>
<path fill="#a29c5d" d="M14.667 21.355c-0 0-0 0-0 0-3.793 0-6.868-3.075-6.868-6.868s3.075-6.868 6.868-6.868c3.793 0 6.868 3.075 6.868 6.868 0 0.582-0.072 1.148-0.209 1.688-0.031 0.084-0.151 0.178-0.294 0.178-0.176 0-0.318-0.142-0.318-0.318 0-0.021 0.002-0.041 0.006-0.060 0.114-0.445 0.18-0.957 0.18-1.485 0-3.446-2.793-6.239-6.239-6.239s-6.239 2.793-6.239 6.239c0 3.446 2.793 6.239 6.239 6.239 0.372 0 0.737-0.033 1.091-0.095-0.022 0.003-0.003 0.001 0.015 0.001 0.178 0 0.322 0.144 0.322 0.322 0 0.159-0.116 0.292-0.267 0.318-0.32 0.052-0.686 0.081-1.060 0.081-0.033 0-0.067-0-0.1-0.001z"></path>
</symbol>
<symbol id="icon-ibi-trade-logo" viewBox="0 0 32 32">
<title>ibi-trade-logo</title>
<path fill="#013e7e" style="fill: var(--color4, #013e7e)" d="M27.277 20.719l4.723-4.723-16.005-15.995-15.995 15.995 4.714 4.723z"></path>
<path fill="#fff" style="fill: var(--color3, #fff)" d="M12.082 10.058v-0.63h-3.599v0.63h0.27c0.297 0 0.54 0.243 0.54 0.54v7.107c0 0.297-0.243 0.54-0.54 0.54h-0.27v0.63h3.599v-0.63h-0.27c-0.297 0-0.54-0.243-0.54-0.54v-7.107c0-0.297 0.243-0.54 0.54-0.54h0.27z"></path>
<path fill="#fff" style="fill: var(--color3, #fff)" d="M23.516 10.058v-0.63h-3.599v0.63h0.27c0.297 0 0.54 0.243 0.54 0.54v7.107c0 0.297-0.243 0.54-0.54 0.54h-0.27v0.63h3.599v-0.63h-0.27c-0.297 0-0.54-0.243-0.54-0.54v-7.107c0-0.297 0.243-0.54 0.54-0.54h0.27z"></path>
<path fill="#fff" style="fill: var(--color3, #fff)" d="M12.757 9.473h4.633c0 0 1.952 0.126 1.952 2.141s-1.979 2.402-1.979 2.402 2.312 0.531 2.312 2.015 0.036 1.673-0.765 2.375c-0.585 0.513-1.556 0.513-1.556 0.513h-4.588v-0.63h0.36c0.351 0 0.63-0.279 0.63-0.63v-6.927c0-0.351-0.279-0.63-0.63-0.63h-0.36v-0.63zM17.408 12.226v-0.603c0-0.846-0.684-1.538-1.538-1.538h-0.315v3.68h0.315c0.855 0 1.538-0.693 1.538-1.538zM15.546 14.376v3.149c0 0 0.027 0.738 0.711 0.738s1.358-0.396 1.358-1.224 0-1.223 0-1.223 0-1.439-2.069-1.439z"></path>
<path fill="#0a6f3e" style="fill: var(--color5, #0a6f3e)" d="M28.464 21.393h-24.929l4.363 4.435h16.202z"></path>
<path fill="#013e7e" style="fill: var(--color4, #013e7e)" d="M10.508 26.503l5.488 5.497 5.497-5.497z"></path>
<path fill="#074d2a" style="fill: var(--color6, #074d2a)" d="M27.277 20.719l-0.675 0.675h1.862z"></path>
<path fill="#074d2a" style="fill: var(--color6, #074d2a)" d="M4.714 20.719l0.684 0.675h-1.862z"></path>
<path fill="#fff" style="fill: var(--color3, #fff)" d="M10.634 22.86h-0.792v2.132h-0.558v-2.132h-0.774v-0.45h2.123v0.45z"></path>
<path fill="#fff" style="fill: var(--color3, #fff)" d="M13.692 24.965v0.027h-0.594l-0.477-0.936h-0.405v0.936h-0.558v-2.582h0.981c0.198 0 0.369 0.027 0.513 0.090s0.252 0.144 0.333 0.261 0.117 0.261 0.117 0.423c0 0.18-0.036 0.333-0.117 0.45s-0.189 0.207-0.342 0.279l0.549 1.053zM12.217 23.606h0.423c0.135 0 0.234-0.036 0.306-0.099s0.099-0.162 0.099-0.27c0-0.117-0.036-0.207-0.099-0.279-0.072-0.063-0.171-0.099-0.306-0.099h-0.423v0.747z"></path>
<path fill="#fff" style="fill: var(--color3, #fff)" d="M16.193 24.479h-0.918l-0.171 0.513h-0.594l0.963-2.582h0.522l0.963 2.582h-0.594l-0.171-0.513zM16.049 24.029l-0.315-0.945-0.306 0.945h0.621z"></path>
<path fill="#fff" style="fill: var(--color3, #fff)" d="M19.342 22.563c0.18 0.108 0.315 0.252 0.423 0.441 0.099 0.189 0.153 0.405 0.153 0.648v0.117c0 0.243-0.054 0.459-0.153 0.648s-0.243 0.333-0.423 0.432c-0.18 0.108-0.387 0.153-0.621 0.153h-0.801v-2.582h0.81c0.225-0.009 0.432 0.045 0.612 0.144zM19.342 23.642c0-0.252-0.054-0.45-0.162-0.585s-0.261-0.198-0.459-0.198h-0.252v1.682h0.243c0.207 0 0.36-0.063 0.468-0.198s0.162-0.333 0.162-0.585v-0.117z"></path>
<path fill="#fff" style="fill: var(--color3, #fff)" d="M22.752 24.542v0.45h-1.745v-2.582h1.745v0.45h-1.188v0.585h1.008v0.432h-1.008v0.666h1.188z"></path>
</symbol>
</defs>
</svg>
