<svg style="position: absolute; width: 0; height: 0; overflow: hidden;" version="1.1" xmlns="http://www.w3.org/2000/svg">
<defs>
<symbol id="icon-menu" viewBox="0 0 32 32">
<title>menu</title>
<path d="M0 0h32v6.4h-32v-6.4z"></path>
<path d="M0 12.8h32v6.4h-32v-6.4z"></path>
<path d="M0 25.6h32v6.4h-32v-6.4z"></path>
</symbol>
<symbol id="icon-ibi-trade-logo" viewBox="0 0 32 32">
<title>ibi-trade-logo</title>
<path fill="#013e7e" style="fill: var(--color4, #013e7e)" d="M27.277 20.719l4.723-4.723-16.005-15.995-15.995 15.995 4.714 4.723z"></path>
<path fill="#fff" style="fill: var(--color3, #fff)" d="M12.082 10.058v-0.63h-3.599v0.63h0.27c0.297 0 0.54 0.243 0.54 0.54v7.107c0 0.297-0.243 0.54-0.54 0.54h-0.27v0.63h3.599v-0.63h-0.27c-0.297 0-0.54-0.243-0.54-0.54v-7.107c0-0.297 0.243-0.54 0.54-0.54h0.27z"></path>
<path fill="#fff" style="fill: var(--color3, #fff)" d="M23.516 10.058v-0.63h-3.599v0.63h0.27c0.297 0 0.54 0.243 0.54 0.54v7.107c0 0.297-0.243 0.54-0.54 0.54h-0.27v0.63h3.599v-0.63h-0.27c-0.297 0-0.54-0.243-0.54-0.54v-7.107c0-0.297 0.243-0.54 0.54-0.54h0.27z"></path>
<path fill="#fff" style="fill: var(--color3, #fff)" d="M12.757 9.473h4.633c0 0 1.952 0.126 1.952 2.141s-1.979 2.402-1.979 2.402 2.312 0.531 2.312 2.015 0.036 1.673-0.765 2.375c-0.585 0.513-1.556 0.513-1.556 0.513h-4.588v-0.63h0.36c0.351 0 0.63-0.279 0.63-0.63v-6.927c0-0.351-0.279-0.63-0.63-0.63h-0.36v-0.63zM17.408 12.226v-0.603c0-0.846-0.684-1.538-1.538-1.538h-0.315v3.68h0.315c0.855 0 1.538-0.693 1.538-1.538zM15.546 14.376v3.149c0 0 0.027 0.738 0.711 0.738s1.358-0.396 1.358-1.224 0-1.223 0-1.223 0-1.439-2.069-1.439z"></path>
<path fill="#0a6f3e" style="fill: var(--color5, #0a6f3e)" d="M28.464 21.393h-24.929l4.363 4.435h16.202z"></path>
<path fill="#013e7e" style="fill: var(--color4, #013e7e)" d="M10.508 26.503l5.488 5.497 5.497-5.497z"></path>
<path fill="#074d2a" style="fill: var(--color6, #074d2a)" d="M27.277 20.719l-0.675 0.675h1.862z"></path>
<path fill="#074d2a" style="fill: var(--color6, #074d2a)" d="M4.714 20.719l0.684 0.675h-1.862z"></path>
<path fill="#fff" style="fill: var(--color3, #fff)" d="M10.634 22.86h-0.792v2.132h-0.558v-2.132h-0.774v-0.45h2.123v0.45z"></path>
<path fill="#fff" style="fill: var(--color3, #fff)" d="M13.692 24.965v0.027h-0.594l-0.477-0.936h-0.405v0.936h-0.558v-2.582h0.981c0.198 0 0.369 0.027 0.513 0.090s0.252 0.144 0.333 0.261 0.117 0.261 0.117 0.423c0 0.18-0.036 0.333-0.117 0.45s-0.189 0.207-0.342 0.279l0.549 1.053zM12.217 23.606h0.423c0.135 0 0.234-0.036 0.306-0.099s0.099-0.162 0.099-0.27c0-0.117-0.036-0.207-0.099-0.279-0.072-0.063-0.171-0.099-0.306-0.099h-0.423v0.747z"></path>
<path fill="#fff" style="fill: var(--color3, #fff)" d="M16.193 24.479h-0.918l-0.171 0.513h-0.594l0.963-2.582h0.522l0.963 2.582h-0.594l-0.171-0.513zM16.049 24.029l-0.315-0.945-0.306 0.945h0.621z"></path>
<path fill="#fff" style="fill: var(--color3, #fff)" d="M19.342 22.563c0.18 0.108 0.315 0.252 0.423 0.441 0.099 0.189 0.153 0.405 0.153 0.648v0.117c0 0.243-0.054 0.459-0.153 0.648s-0.243 0.333-0.423 0.432c-0.18 0.108-0.387 0.153-0.621 0.153h-0.801v-2.582h0.81c0.225-0.009 0.432 0.045 0.612 0.144zM19.342 23.642c0-0.252-0.054-0.45-0.162-0.585s-0.261-0.198-0.459-0.198h-0.252v1.682h0.243c0.207 0 0.36-0.063 0.468-0.198s0.162-0.333 0.162-0.585v-0.117z"></path>
<path fill="#fff" style="fill: var(--color3, #fff)" d="M22.752 24.542v0.45h-1.745v-2.582h1.745v0.45h-1.188v0.585h1.008v0.432h-1.008v0.666h1.188z"></path>
</symbol>
</defs>
</svg>
