<!-- Generated by IcoMoon.io -->
<svg class="chat" version="1.1" xmlns="http://www.w3.org/2000/svg" width="32" height="32" viewBox="0 0 32 32">
<path fill="#b3c5d8" d="M16 32c-8.837 0-16-7.163-16-16s7.163-16 16-16c8.837 0 16 7.163 16 16-0.011 8.832-7.168 15.989-15.999 16zM16 0.212c-8.72 0-15.788 7.069-15.788 15.788s7.069 15.788 15.788 15.788c8.72 0 15.788-7.069 15.788-15.788-0.010-8.716-7.072-15.778-15.787-15.788z"></path>
<g class="bubble">
<path fill="#a29c5d" d="M16.398 16.617v-2.206h-0.424v-0.636h1.060v1.185l1.060-1.185h4.107c0.301-0.001 0.546-0.245 0.547-0.547v-3.781c-0.001-0.299-0.242-0.542-0.54-0.547h-8.009c-0.301 0.001-0.546 0.245-0.547 0.547v1.573h-0.636v-1.572c0.001-0.653 0.53-1.181 1.182-1.183h8.017c0.653 0.001 1.181 0.53 1.183 1.182v3.781c-0.001 0.653-0.531 1.183-1.185 1.183-0.002 0-0.004 0-0.007-0h-3.814z"></path>
<path fill="#fff" d="M17.469 19.033c-0.178-0.963-0.982-1.693-1.967-1.754-0.011 0.026-0.018 0.050-0.026 0.072l-0.915 2.218-0.593-1.441c-0.064-0.15-0.21-0.253-0.379-0.253s-0.316 0.103-0.378 0.25l-0.594 1.444-0.913-2.221c-0.008-0.020-0.014-0.043-0.019-0.067-0.992 0.060-1.796 0.789-1.971 1.739l-0.786 4.398h9.325z"></path>
</g>
<g class="person">
<path fill="#013e7e" d="M18.632 23.735h-10.085l0.848-4.758c0.197-1.11 1.121-1.952 2.254-2.023l0.289-0 0.064 0.292 0.617 1.498 0.299-0.731c0.111-0.267 0.37-0.451 0.671-0.451 0.001 0 0.002 0 0.003 0h-0c0 0 0 0 0.001 0 0.302 0 0.56 0.184 0.669 0.447l0.301 0.732 0.619-1.507 0.061-0.28h0.273c1.14 0.068 2.066 0.907 2.265 2l0.002 0.015zM9.308 23.099h8.564l-0.706-4.012c-0.135-0.743-0.709-1.322-1.438-1.463l-1.156 2.781-0.896-2.157c-0.012-0.034-0.044-0.057-0.082-0.057-0.001 0-0.002 0-0.003 0h0c-0.001-0-0.002-0-0.003-0-0.037 0-0.069 0.024-0.082 0.057l-0.888 2.158-1.144-2.783c-0.741 0.143-1.314 0.721-1.448 1.453z"></path>
<path fill="#fff" d="M13.59 10.808c-1.288 0-2.331 0.952-2.331 2.649s1.483 3.497 2.331 3.497 2.331-1.799 2.331-3.497-1.045-2.649-2.331-2.649z"></path>
<path fill="#013e7e" d="M13.59 17.272c-1.060 0-2.649-2.009-2.649-3.815 0-1.746 1.089-2.967 2.649-2.967s2.649 1.221 2.649 2.967c0 1.801-1.581 3.815-2.649 3.815zM13.59 11.126c-1.223 0-2.013 0.915-2.013 2.331 0 1.583 1.38 3.179 2.013 3.179s2.013-1.596 2.013-3.179c0-1.416-0.79-2.331-2.013-2.331z"></path>
</g>
</svg>
