<!-- Generated by IcoMoon.io -->
<svg class="forms" version="1.1" xmlns="http://www.w3.org/2000/svg" width="32" height="32" viewBox="0 0 32 32">
<path fill="#b3c5d8" d="M16 32c-8.837 0-16-7.163-16-16s7.163-16 16-16c8.837 0 16 7.163 16 16-0.011 8.832-7.168 15.989-15.999 16zM16 0.212c-8.72 0-15.788 7.069-15.788 15.788s7.069 15.788 15.788 15.788c8.72 0 15.788-7.069 15.788-15.788-0.010-8.716-7.072-15.778-15.787-15.788z"></path>
<g class="pages">
<path fill="#013e7e" d="M20.132 23.947h-9.536c-0.41 0-0.742-0.332-0.742-0.742v-13.139c0-0.41 0.332-0.742 0.742-0.742h0.954v0.636h-0.954c-0.059 0-0.106 0.047-0.106 0.106v13.139c0 0.059 0.047 0.106 0.106 0.106h9.536c0.059 0 0.106-0.047 0.106-0.106v-0.742h0.636v0.742c0 0.41-0.332 0.742-0.742 0.742z"></path>
<path fill="#013e7e" d="M21.404 22.887h-9.536c-0.41 0-0.742-0.332-0.742-0.742v-13.139c0-0.41 0.332-0.742 0.742-0.742h6.57c0.176 0 0.318 0.142 0.318 0.318v2.967c0 0.059 0.047 0.106 0.106 0.106h2.967c0.176 0 0.318 0.142 0.318 0.318v10.172c0 0.41-0.332 0.742-0.742 0.742zM11.868 8.901c-0.059 0-0.106 0.047-0.106 0.106v13.139c0 0.059 0.047 0.106 0.106 0.106h9.536c0.059 0 0.106-0.047 0.106-0.106v-9.854h-2.649c-0.41 0-0.742-0.332-0.742-0.742v-2.649z"></path>
<path fill="#013e7e" d="M21.828 12.291h-2.967c-0.41 0-0.742-0.332-0.742-0.742v-2.967c0-0.175 0.142-0.318 0.318-0.318 0.088 0 0.167 0.036 0.225 0.093l3.391 3.391c0.057 0.057 0.093 0.137 0.093 0.225 0 0.175-0.142 0.318-0.318 0.318zM18.755 9.35v2.2c0 0.059 0.047 0.106 0.106 0.106h2.2z"></path>
</g>
<g class="lines">
<path fill="#a29c5d" d="M14.305 13.775h4.874v0.636h-4.874v-0.636z"></path>
<path fill="#a29c5d" d="M14.305 15.258h4.874v0.636h-4.874v-0.636z"></path>
<path fill="#a29c5d" d="M14.305 16.742h4.874v0.636h-4.874v-0.636z"></path>
<path fill="#a29c5d" d="M14.305 18.225h4.874v0.636h-4.874v-0.636z"></path>
</g>
</svg>
