<!-- Generated by IcoMoon.io -->
<svg class="id" version="1.1" xmlns="http://www.w3.org/2000/svg" width="32" height="32" viewBox="0 0 32 32">
<path fill="#b3c5d8" d="M16 32c-8.837 0-16-7.163-16-16s7.163-16 16-16c8.837 0 16 7.163 16 16-0.011 8.832-7.168 15.989-15.999 16zM16 0.212c-8.72 0-15.788 7.069-15.788 15.788s7.069 15.788 15.788 15.788c8.72 0 15.788-7.069 15.788-15.788-0.010-8.716-7.072-15.778-15.787-15.788z"></path>
<g class="body">
<path fill="#013e7e" d="M11.444 17.589c-0.818 0-1.483-0.807-1.483-1.801 0-0.803 0-1.801 1.483-1.801s1.483 0.998 1.483 1.801c0 0.994-0.665 1.801-1.483 1.801zM11.444 14.623c-0.848 0-0.848 0.318-0.848 1.166 0 0.636 0.388 1.166 0.848 1.166s0.848-0.534 0.848-1.166c0-0.848 0-1.166-0.848-1.166z"></path>
<path fill="#013e7e" d="M14.703 22.040h-6.508l0.019-0.337c0.1-1.723 1.021-3.213 2.295-3.709l0.235-0.091 0.39 0.566 0.309-0.456 0.316 0.46 0.39-0.566 0.235 0.091c1.272 0.496 2.195 1.986 2.295 3.709zM8.879 21.404h5.137c-0.159-1.225-0.782-2.261-1.634-2.713l-0.619 0.901-0.32-0.458-0.316 0.46-0.615-0.903c-0.852 0.451-1.475 1.488-1.634 2.713z"></path>
</g>
<g class="lines">
<path fill="#a29c5d" d="M15.894 13.775h7.841v0.636h-7.841v-0.636z"></path>
<path fill="#a29c5d" d="M15.894 15.682h7.841v0.636h-7.841v-0.636z"></path>
<path fill="#a29c5d" d="M15.894 17.589h7.841v0.636h-7.841v-0.636z"></path>
<path fill="#a29c5d" d="M15.894 19.285h3.603v0.636h-3.603v-0.636z"></path>
<path fill="#a29c5d" d="M22.146 21.828c-0.761 0-1.377-0.617-1.377-1.377s0.617-1.377 1.377-1.377c0.761 0 1.377 0.617 1.377 1.377-0.001 0.76-0.617 1.376-1.377 1.377zM22.146 19.709c-0.41 0-0.742 0.332-0.742 0.742s0.332 0.742 0.742 0.742c0.41 0 0.742-0.332 0.742-0.742s-0.332-0.742-0.742-0.742z"></path>
</g>
<g class="card">
<path fill="#013e7e" d="M18.111 10.327h-0.636c0-0.788-0.639-1.426-1.426-1.426s-1.426 0.639-1.426 1.426h-0.636c0-1.139 0.923-2.062 2.062-2.062s2.062 0.923 2.062 2.062z"></path>
<path fill="#013e7e" d="M19.921 12.927h-7.629v-2.755h7.629zM12.927 12.291h6.358v-1.483h-6.358z"></path>
<path fill="#013e7e" d="M23.559 23.735h-15.118c-0.916-0.001-1.658-0.743-1.659-1.659v-9.185c0.001-0.916 0.743-1.658 1.659-1.659h4.275v0.636h-4.274c-0.565 0.001-1.022 0.459-1.024 1.023v9.185c0.001 0.565 0.459 1.022 1.023 1.024h15.119c0.565-0.001 1.022-0.459 1.024-1.023v-9.185c-0.001-0.565-0.459-1.022-1.023-1.024h-3.851v-0.636h3.851c0.916 0.001 1.658 0.743 1.659 1.659v9.185c-0.001 0.916-0.743 1.658-1.659 1.659z"></path>
</g>
</svg>
