<svg class="open" version="1.1" xmlns="http://www.w3.org/2000/svg" viewBox="0 0 32 32">
<path fill="#b3c5d8" d="M16 32c-8.837 0-16-7.163-16-16s7.163-16 16-16c8.837 0 16 7.163 16 16-0.011 8.832-7.168 15.989-15.999 16zM16 0.212c-8.72 0-15.788 7.069-15.788 15.788s7.069 15.788 15.788 15.788c8.72 0 15.788-7.069 15.788-15.788-0.010-8.716-7.072-15.778-15.787-15.788z"></path>
<path fill="#013e7e" d="M14.885 15.513l0.45-0.45 8.777 8.777-0.45 0.45-8.777-8.777z"></path>
<path fill="#013e7e" d="M16.335 19.374l0.576-0.269-1.759-3.774 3.772 1.761 0.269-0.576-5.357-2.499 2.499 5.357z"></path>
<path fill="#a29c5d" d="M14.667 18.933c-0.001 0-0.002 0-0.004 0-2.458 0-4.45-1.992-4.45-4.45s1.992-4.45 4.45-4.45c2.458 0 4.45 1.992 4.45 4.45 0 0.243-0.020 0.482-0.057 0.714-0.021 0.13-0.154 0.247-0.314 0.247-0.178 0-0.322-0.144-0.322-0.322 0-0.017 0.001-0.034 0.004-0.051 0.028-0.174 0.044-0.376 0.044-0.583 0-0.001 0-0.002 0-0.003 0-2.107-1.708-3.814-3.815-3.814s-3.815 1.708-3.815 3.815c0 2.107 1.708 3.815 3.815 3.815h0.119l0.030 0.318 0.011 0.318z"></path>
<path fill="#a29c5d" d="M14.667 21.355c-0 0-0 0-0 0-3.793 0-6.868-3.075-6.868-6.868s3.075-6.868 6.868-6.868c3.793 0 6.868 3.075 6.868 6.868 0 0.582-0.072 1.148-0.209 1.688-0.031 0.084-0.151 0.178-0.294 0.178-0.176 0-0.318-0.142-0.318-0.318 0-0.021 0.002-0.041 0.006-0.060 0.114-0.445 0.18-0.957 0.18-1.485 0-3.446-2.793-6.239-6.239-6.239s-6.239 2.793-6.239 6.239c0 3.446 2.793 6.239 6.239 6.239 0.372 0 0.737-0.033 1.091-0.095-0.022 0.003-0.003 0.001 0.015 0.001 0.178 0 0.322 0.144 0.322 0.322 0 0.159-0.116 0.292-0.267 0.318-0.32 0.052-0.686 0.081-1.060 0.081-0.033 0-0.067-0-0.1-0.001z"></path>
</svg>