<!-- Generated by IcoMoon.io -->
<svg class="sign" version="1.1" xmlns="http://www.w3.org/2000/svg" width="32" height="32" viewBox="0 0 32 32">
<path fill="#b3c5d8" d="M16 32c-8.837 0-16-7.163-16-16s7.163-16 16-16c8.837 0 16 7.163 16 16-0.011 8.832-7.168 15.989-15.999 16zM16 0.212c-8.72 0-15.788 7.069-15.788 15.788s7.069 15.788 15.788 15.788c8.72 0 15.788-7.069 15.788-15.788-0.010-8.716-7.072-15.778-15.787-15.788z"></path>
<path fill="#013e7e" d="M18.238 23.311h-9.536c-0.41 0-0.742-0.332-0.742-0.742v-13.139c0-0.41 0.332-0.742 0.742-0.742h6.887v3.285c0 0.059 0.047 0.106 0.106 0.106h3.285v6.146h-0.636v-5.51h-2.649c-0.41 0-0.742-0.332-0.742-0.742v-2.649h-6.252c-0.059 0-0.106 0.047-0.106 0.106v13.139c0 0.059 0.047 0.106 0.106 0.106h9.536c0.059 0 0.106-0.047 0.106-0.106v-1.801h0.636v1.801c0 0.41-0.332 0.742-0.742 0.742z"></path>
<path fill="#013e7e" d="M18.662 12.715h-2.967c-0.41 0-0.742-0.332-0.742-0.742v-2.967c0-0.175 0.142-0.318 0.318-0.318 0.088 0 0.167 0.036 0.225 0.093l3.391 3.391c0.057 0.057 0.093 0.137 0.093 0.225 0 0.175-0.142 0.318-0.318 0.318zM15.589 9.774v2.2c0 0.059 0.047 0.106 0.106 0.106h2.198z"></path>
<path fill="#a29c5d" d="M11.139 14.199h4.874v0.636h-4.874v-0.636z"></path>
<path fill="#a29c5d" d="M11.139 15.682h4.874v0.636h-4.874v-0.636z"></path>
<path fill="#a29c5d" d="M11.139 17.166h4.874v0.636h-4.874v-0.636z"></path>
<path fill="#a29c5d" d="M11.139 18.649h4.874v0.636h-4.874v-0.636z"></path>
<path fill="#a29c5d" d="M13.828 22.188l-0.153-0.617 9.664-2.416-0.155-0.617-9.664 2.416-0.155-0.617 10.28-2.571 0.462 1.852-10.28 2.568z"></path>
<path fill="#a29c5d" d="M10.626 22.050l3.179-1.664 0.409 1.634zM13.381 21.323l-0.131 0.070h0.148z"></path>
<path fill="#a29c5d" d="M22.182 19.772l-0.49-1.952-4.111 1.028-0.155-0.617 4.73-1.183 0.642 2.571-0.617 0.153z"></path>
</svg>
